
        <svg xmlns="http://www.w3.org/2000/svg" xmlns:xlink="http://www.w3.org/1999/xlink" version="1.1" width="3131.2910284463896" 
        height="800.875273522976" viewBox="0 0 3131.2910284463896 800.875273522976">
			
			<g transform="scale(6.564551422319475) translate(10, 10)">
				<defs id="SvgjsDefs3317"><linearGradient id="SvgjsLinearGradient3326"><stop id="SvgjsStop3327" stop-color="#00ddff" offset="0"></stop><stop id="SvgjsStop3328" stop-color="#ff00d4" offset="1"></stop></linearGradient></defs><g id="SvgjsG3318" featureKey="rootContainer" transform="matrix(1,0,0,1,0,0)" fill="#390050"><rect width="457" height="102" rx="10"></rect></g><g id="SvgjsG3319" featureKey="nameLeftFeature-0" transform="matrix(2.414809760412647,0,0,2.414809760412647,17.92471183418112,20.251736510286552)" fill="#ffffff"><path d="M8.0762 20.19531 c-4.1504 0 -7.2168 -2.8223 -7.2168 -7.2559 s3.0664 -7.2461 7.2168 -7.2461 c3.1445 0 5.6641 1.6113 6.6699 4.2871 l-2.7344 0.99609 c-0.625 -1.6406 -2.1191 -2.5879 -3.9355 -2.5879 c-2.4316 0 -4.2969 1.6992 -4.2969 4.5508 s1.8652 4.5605 4.2969 4.5605 c1.8164 0 3.3105 -0.95703 3.9355 -2.5977 l2.7344 0.99609 c-1.0059 2.6758 -3.5254 4.2969 -6.6699 4.2969 z M18.964871875 20 l0 -14.111 l2.9297 0 l0 14.111 l-2.9297 0 z M36.99234375 5.888999999999999 l2.9199 0 l0 14.111 l-3.3887 0 l-6.25 -10.088 l0 10.088 l-2.9199 0 l0 -14.111 l3.3496 0 l6.2891 10.029 l0 -10.029 z M53.5646875 8.467 l-5.2344 0 l0 3.2031 l4.6387 0 l0 2.5488 l-4.6387 0 l0 3.1934 l5.2344 0 l0 2.5879 l-8.1836 0 l0 -14.111 l8.1836 0 l0 2.5781 z M63.623065625 20.19531 c-3.0957 0 -5.5176 -1.582 -5.5176 -5.1367 l0 -9.1699 l2.9297 0 l0 8.7695 c0 2.1484 1.1426 2.9492 2.5879 2.9492 c1.4551 0 2.6074 -0.81055 2.6074 -2.9492 l0 -8.7695 l2.9297 0 l0 9.1699 c0 3.5547 -2.4316 5.1367 -5.5371 5.1367 z M80.205065625 5.888999999999999 c2.7637 0 4.4824 2.0508 4.4824 4.5605 c0 2.5684 -1.7188 4.4922 -4.4824 4.4922 l-2.9395 0 l0 5.0586 l-2.9297 0 l0 -14.111 l5.8691 0 z M79.716765625 12.4902 c1.4648 0 2.1484 -0.81055 2.1484 -2.0801 c0 -1.2207 -0.68359 -2.0703 -2.1484 -2.0703 l-2.4512 0 l0 4.1504 l2.4512 0 z"></path></g><g id="SvgjsG3320" featureKey="inlineSymbolFeature-0" transform="matrix(1.4854854968940832,0,0,1.4854854968940832,197.4354350931775,-23.029616456084803)" fill="url(#SvgjsLinearGradient3326)"><path xmlns="http://www.w3.org/2000/svg" fill="url(#SvgjsLinearGradient3326)" d="M34,74.4c-0.68,0-1.359-0.173-1.971-0.52C30.775,73.171,30,71.842,30,70.4V29.6  c0-1.441,0.775-2.771,2.029-3.481c1.253-0.709,2.793-0.689,4.028,0.051l34,20.4C71.263,47.293,72,48.595,72,50  s-0.737,2.707-1.942,3.43l-34,20.4C35.425,74.21,34.713,74.4,34,74.4z M38,36.665v26.671L60.226,50L38,36.665z"></path></g><g id="SvgjsG3321" featureKey="nameRightFeature-0" transform="matrix(2.48163301486799,0,0,2.48163301486799,302.0687679780242,19.386410011189845)" fill="#ffffff"><path d="M17.15771875 8.467 l-5.3711 0 l0 3.2031 l4.6387 0 l0 2.5488 l-4.6387 0 l0 5.7813 l-2.9492 0 l0 -14.111 l8.3203 0 l0 2.5781 z M24.4043375 17.4121 l4.4238 0 l0 2.5879 l-7.3535 0 l0 -14.111 l2.9297 0 l0 11.523 z M32.8808875 20 l0 -14.111 l2.9297 0 l0 14.111 l-2.9297 0 z M39.726559375 20 l5.498 -7.3633 l-5.3418 -6.748 l3.5645 0 l3.5156 4.6289 l3.5156 -4.6289 l3.5645 0 l-5.3418 6.748 l5.498 7.3633 l-3.7305 0 l-3.5059 -4.9902 l-3.5059 4.9902 l-3.7305 0 z"></path></g>
			</g>
		</svg>
	